<svg xmlns="http://www.w3.org/2000/svg" version="1.1" xmlns:xlink="http://www.w3.org/1999/xlink" xmlns:svgjs="http://svgjs.dev/svgjs" width="100%" height="100" viewBox="125 170 1000 350"><rect width="1000" height="600" x="0" y="0" fill="transparent"/><g><circle r="166.66666666666666" cx="355.96645609537757" cy="378.1887000325123" fill="#251e0a" transform="matrix(0.6603282037525214,0,0,0.6603282037525215,0,50.27133303771009)"/><path d="M335.9508689222155 400.3112141854895Q335.9508689222155 427.4961525765685 320.4417006259057 440.3424259389836Q304.9617949112869 453.1886993013987 275.9040512919744 453.1886993013987L275.9040512919744 453.1886993013987Q246.81704509097065 453.1886993013987 231.33713937635196 440.3424259389836Q215.8572336617333 427.4961525765685 215.8572336617333 400.3112141854895L215.8572336617333 400.3112141854895L215.8572336617333 398.4091463755647L259.4584803815477 398.4091463755647L259.4584803815477 400.1063761136515Q259.4584803815477 409.99712872526044 263.14556567463273 414.2109404887861Q266.83265096771765 418.42475225231175 274.41165962572575 418.42475225231175L274.41165962572575 418.42475225231175Q281.9906682837337 418.42475225231175 285.67775357681865 414.2109404887861Q289.3648388699037 409.99712872526044 289.3648388699037 400.1063761136515L289.3648388699037 400.1063761136515L289.3648388699037 305.7052875779995L335.9508689222155 305.7052875779995L335.9508689222155 400.3112141854895ZM428.0109509225754 303.1887055525606Q455.8104035291685 303.1887055525606 473.71910352415273 314.45479950365353Q491.62780351913693 325.72089345474654 492.0667422445041 347.8434052132564L492.0667422445041 347.8434052132564L492.0667422445041 350.3892498203865L448.4362329429986 350.3892498203865L448.4362329429986 349.5406349513432Q448.4362329429986 343.2199173060547 443.81274503579675 339.0061055425289Q439.18925712859493 334.7922937790033 429.70818066066215 334.7922937790033L429.70818066066215 334.7922937790033Q420.4319422645674 334.7922937790033 415.48656595876287 337.5429764579714Q410.51192707126734 340.2643965552484 410.51192707126734 344.27337024693605L410.51192707126734 344.27337024693605Q410.51192707126734 349.95031109501923 417.2715834419231 352.7009937739875Q424.00197723088775 355.4516764529556 438.9551564750658 358.37793462207065L438.9551564750658 358.37793462207065Q456.45418032637383 361.97723217008223 467.72027427746684 365.8691555350052Q478.98636822855985 369.76107889992824 487.41399175561116 378.62764115234694Q495.8416152826626 387.4649408230744 496.07571593619184 402.6229581390904L496.07571593619184 402.6229581390904Q496.07571593619184 428.3447674456118 478.6937424116484 440.78136466435086Q461.3117688871049 453.1886993013987 432.22476268610103 453.1886993013987L432.22476268610103 453.1886993013987Q398.30943050605754 453.1886993013987 379.4350653152653 441.8348176052322Q360.58996270616433 430.45167332737475 360.58996270616433 401.569505198209L360.58996270616433 401.569505198209L404.630148151346 401.569505198209Q404.630148151346 412.54297333239043 410.3070889994292 416.23005862547546Q416.0132924292036 419.9171439185605 428.0109509225754 419.9171439185605L428.0109509225754 419.9171439185605Q436.84825059330285 419.9171439185605 442.6422417681507 418.0150761086357Q448.4362329429986 416.1130082987109 448.4362329429986 410.2312293787896L448.4362329429986 410.2312293787896Q448.4362329429986 404.96396467438245 442.0277275526365 402.3303323221789Q435.58995958058335 399.6966999699753 421.0464564800816 396.74117921916917L421.0464564800816 396.74117921916917Q403.3718571386265 392.93704359931957 391.7838747889309 388.8402821625585Q380.1958924392353 384.7142581441063 371.53416825865463 375.2331816761734Q362.9017066597652 365.7521052082406 362.9017066597652 349.5406349513432L362.9017066597652 349.5406349513432Q362.9017066597652 325.72089345474654 381.3371331251901 314.45479950365353Q399.77255959061506 303.1887055525606 428.0109509225754 303.1887055525606L428.0109509225754 303.1887055525606Z " fill="#facc15" transform="matrix(0.6603282037525214,0,0,0.6603282037525215,0,50.27133303771009)"/><path d="M698.7052412286414 382.25619864737297Q698.7052412286414 403.2489660094738 686.728743164149 413.16912195345907Q674.7748422658161 423.0892778974442 652.3358562695124 423.0892778974442L652.3358562695124 423.0892778974442Q629.8742731070492 423.0892778974442 617.9203722087162 413.16912195345907Q605.9664713103833 403.2489660094738 605.9664713103833 382.25619864737297L605.9664713103833 382.25619864737297L605.9664713103833 380.78738284701075L639.6362488879186 380.78738284701075L639.6362488879186 382.098018484257Q639.6362488879186 389.7358606461409 642.4834918240055 392.98985257309727Q645.3307347600922 396.24384450005374 651.183400795382 396.24384450005374L651.183400795382 396.24384450005374Q657.0360668306716 396.24384450005374 659.8833097667585 392.98985257309727Q662.7305527028453 389.7358606461409 662.7305527028453 382.098018484257L662.7305527028453 382.098018484257L662.7305527028453 309.1995604539693L698.7052412286414 309.1995604539693L698.7052412286414 382.25619864737297ZM760.6892680039294 333.2881395799106Q783.3090313295086 333.2881395799106 796.2346103726966 344.76749998889585Q809.1601894158846 356.2242632317215 809.1601894158846 378.18870873867746L809.1601894158846 378.18870873867746Q809.1601894158846 400.1531542456333 796.2346103726966 411.63251465461855Q783.3090313295086 423.0892778974442 760.6892680039294 423.0892778974442L760.6892680039294 423.0892778974442Q738.0695046783504 423.0892778974442 725.2117171336406 411.70030615309673Q712.3539295889309 400.31133440874925 712.3539295889309 378.18870873867746L712.3539295889309 378.18870873867746Q712.3539295889309 356.0660830686057 725.2117171336406 344.6771113242582Q738.0695046783504 333.2881395799106 760.6892680039294 333.2881395799106L760.6892680039294 333.2881395799106ZM760.6892680039294 355.25258508686653Q744.7356686953792 355.25258508686653 744.7356686953792 373.6466783406341L744.7356686953792 373.6466783406341L744.7356686953792 382.91151646599616Q744.7356686953792 401.1248323904884 760.6892680039294 401.1248323904884L760.6892680039294 401.1248323904884Q776.8010474755956 401.1248323904884 776.8010474755956 382.91151646599616L776.8010474755956 382.91151646599616L776.8010474755956 373.6466783406341Q776.8010474755956 355.25258508686653 760.6892680039294 355.25258508686653L760.6892680039294 355.25258508686653ZM857.3373476677672 343.20829552389586Q866.6021857931291 333.2881395799106 881.403329627549 333.2881395799106L881.403329627549 333.2881395799106Q898.8257447364616 333.2881395799106 908.2487630249395 344.5867226596204Q917.694378479577 355.9079029054897 917.694378479577 378.0305285755615L917.694378479577 378.0305285755615Q917.694378479577 400.31133440874925 908.2487630249395 411.70030615309673Q898.8257447364616 423.0892778974442 881.403329627549 423.0892778974442L881.403329627549 423.0892778974442Q863.5063740292887 423.0892778974442 854.0833557408107 408.9434518816476L854.0833557408107 408.9434518816476L851.3039043032022 421.1459216077341L824.9556085613189 421.1459216077341L824.9556085613189 303.1887142555637L857.3373476677672 303.1887142555637L857.3373476677672 343.20829552389586ZM871.324993520448 357.1959413765766Q864.1616918479119 357.1959413765766 860.5913395947236 362.3254980947649Q856.9983901753759 367.45505481295316 856.9983901753759 375.5900346303442L856.9983901753759 375.5900346303442L856.9983901753759 380.96816017628606Q856.9983901753759 389.1031399936771 860.5913395947236 394.1423080472277Q864.1616918479119 399.1814761007783 871.324993520448 399.1814761007783L871.324993520448 399.1814761007783Q885.3126393731286 399.1814761007783 885.3126393731286 382.59515613976424L885.3126393731286 382.59515613976424L885.3126393731286 373.963038666866Q885.3126393731286 357.1959413765766 871.324993520448 357.1959413765766L871.324993520448 357.1959413765766ZM982.6160368555895 307.2562041642592Q1004.0833447070382 307.2562041642592 1017.9128103966029 315.9561131356358Q1031.7422760861677 324.65602210701235 1032.0586364123997 341.73947972353363L1032.0586364123997 341.73947972353363L1032.0586364123997 343.7054331794031L998.3888588348644 343.7054331794031L998.3888588348644 343.0501153607799Q998.3888588348644 338.16912747034525 994.8185065816762 334.9151355433889Q991.2255571623284 331.6611436164324 983.9040753266765 331.6611436164324L983.9040753266765 331.6611436164324Q976.7407736541404 331.6611436164324 972.9218525731985 333.78527723541794Q969.1029314922566 335.8868136882439 969.1029314922566 338.9826254520844L969.1029314922566 338.9826254520844Q969.1029314922566 343.3664756870118 974.3002797089232 345.4906093059972Q979.5202250917491 347.61474292498275 991.0673769992126 349.87445954092465L991.0673769992126 349.87445954092465Q1004.5804823625454 352.65391097853325 1013.280391333922 355.6593340777361Q1021.9803003052986 358.66475717693885 1028.4882841592116 365.51169852324307Q1034.9962680131243 372.3360427033878 1035.1544481762403 384.0413747739671L1035.1544481762403 384.0413747739671Q1035.1544481762403 403.904283828097 1021.7317314775449 413.50807944585034Q1008.3090147788497 423.0892778974442 985.870028782546 423.0892778974442L985.870028782546 423.0892778974442Q959.6573160376192 423.0892778974442 945.104741030953 414.3215774275894Q930.5521660242869 405.5312797915752 930.5521660242869 383.2278767922281L930.5521660242869 383.2278767922281L964.5383039280539 383.2278767922281Q964.5383039280539 391.70181410201036 968.9447513291407 394.54905703809726Q973.3286015640681 397.39629997418416 982.6160368555895 397.39629997418416L982.6160368555895 397.39629997418416Q989.4403810357344 397.39629997418416 993.9146199352994 395.9274841738218Q998.3888588348644 394.4586683734596 998.3888588348644 389.9166379754162L998.3888588348644 389.9166379754162Q998.3888588348644 385.8491480667207 993.4174822797922 383.81540311237296Q988.4687028908793 381.7816581580252 977.2379113096476 379.49934437592384L977.2379113096476 379.49934437592384Q963.5666257831988 376.56171277519917 954.6181479840686 373.39810951288047Q945.6696701849385 370.2119090844023 939.0035061679097 362.8904272487503Q932.3373421508809 355.56894541309845 932.3373421508809 343.0501153607799L932.3373421508809 343.0501153607799Q932.3373421508809 324.65602210701235 946.5735568313153 315.9561131356358Q960.8097715117497 307.2562041642592 982.6160368555895 307.2562041642592L982.6160368555895 307.2562041642592ZM1107.3975883879048 333.2881395799106Q1124.7974063306579 333.2881395799106 1134.2430217852952 344.6771113242582Q1143.6886372399326 356.0660830686057 1143.6886372399326 378.3468889017934L1143.6886372399326 378.3468889017934Q1143.6886372399326 400.49211173802456 1134.2430217852952 411.7906948177344Q1124.7974063306579 423.0892778974442 1107.3975883879048 423.0892778974442L1107.3975883879048 423.0892778974442Q1092.438264390369 423.0892778974442 1083.3090092619636 413.3273021165749L1083.3090092619636 413.3273021165749L1083.3090092619636 453.1887032217912L1050.9498673216744 453.1887032217912L1050.9498673216744 335.2314958696207L1077.2981630635577 335.2314958696207L1080.055017335007 347.4339655957073Q1089.5006327896444 333.2881395799106 1107.3975883879048 333.2881395799106L1107.3975883879048 333.2881395799106ZM1097.3192522808035 357.1959413765766Q1090.1559506082676 357.1959413765766 1086.5630011889198 362.2577065962866Q1082.9926489357317 367.2968746498372 1082.9926489357317 375.4318544672282L1082.9926489357317 375.4318544672282L1082.9926489357317 380.78738284701075Q1082.9926489357317 388.92236266440176 1086.5630011889198 394.05191938259003Q1090.1559506082676 399.1814761007783 1097.3192522808035 399.1814761007783L1097.3192522808035 399.1814761007783Q1111.3068981334845 399.1814761007783 1111.3068981334845 382.4143788104889L1111.3068981334845 382.4143788104889L1111.3068981334845 373.80485850375004Q1111.3068981334845 357.1959413765766 1097.3192522808035 357.1959413765766L1097.3192522808035 357.1959413765766ZM1203.706710559351 333.2881395799106Q1226.3264738849302 333.2881395799106 1239.2746500942776 344.76749998889585Q1252.2002291374656 356.2242632317215 1252.2002291374656 378.18870873867746L1252.2002291374656 378.18870873867746Q1252.2002291374656 400.1531542456333 1239.2746500942776 411.63251465461855Q1226.3264738849302 423.0892778974442 1203.706710559351 423.0892778974442L1203.706710559351 423.0892778974442Q1181.1095443999316 423.0892778974442 1168.251756855222 411.70030615309673Q1155.3939693105121 400.31133440874925 1155.3939693105121 378.18870873867746L1155.3939693105121 378.18870873867746Q1155.3939693105121 356.0660830686057 1168.251756855222 344.6771113242582Q1181.1095443999316 333.2881395799106 1203.706710559351 333.2881395799106L1203.706710559351 333.2881395799106ZM1203.706710559351 355.25258508686653Q1187.7757084169602 355.25258508686653 1187.7757084169602 373.6466783406341L1187.7757084169602 373.6466783406341L1187.7757084169602 382.91151646599616Q1187.7757084169602 401.1248323904884 1203.706710559351 401.1248323904884L1203.706710559351 401.1248323904884Q1219.8184900310175 401.1248323904884 1219.8184900310175 382.91151646599616L1219.8184900310175 382.91151646599616L1219.8184900310175 373.6466783406341Q1219.8184900310175 355.25258508686653 1203.706710559351 355.25258508686653L1203.706710559351 355.25258508686653ZM1306.8627740771017 335.2314958696207L1325.0986871677537 335.2314958696207L1325.0986871677537 357.1959413765766L1306.8627740771017 357.1959413765766L1306.8627740771017 389.9166379754162Q1306.8627740771017 395.76930401070587 1308.8287275329712 398.4583667836768Q1310.7720838226815 401.1248323904884 1315.9694320393482 401.1248323904884L1315.9694320393482 401.1248323904884L1325.0986871677537 401.1248323904884L1325.0986871677537 420.17424346287913Q1321.189377422174 421.46228193396604 1314.9977538944931 422.2757799157052Q1308.8287275329712 423.0892778974442 1304.2640999687687 423.0892778974442L1304.2640999687687 423.0892778974442Q1289.9374966236965 423.0892778974442 1282.2092657971752 417.89192968077776Q1274.4810349706536 412.6945814641112 1274.4810349706536 400.1531542456333L1274.4810349706536 400.1531542456333L1274.4810349706536 357.1959413765766L1262.4593425738422 357.1959413765766L1262.4593425738422 335.2314958696207L1275.7916706079 335.2314958696207L1282.79679211732 309.1995604539693L1306.8627740771017 309.1995604539693L1306.8627740771017 335.2314958696207Z " fill="#facc15" transform="matrix(0.6603282037525214,0,0,0.6603282037525215,0,50.27133303771009)"/></g></svg>